<?xml version="1.0" encoding="utf-8"?>
<!-- Generator: Adobe Illustrator 16.0.0, SVG Export Plug-In . SVG Version: 6.00 Build 0)  -->
<!DOCTYPE svg PUBLIC "-//W3C//DTD SVG 1.1//EN" "http://www.w3.org/Graphics/SVG/1.1/DTD/svg11.dtd">
<svg version="1.1" id="Layer_1" xmlns="http://www.w3.org/2000/svg" xmlns:xlink="http://www.w3.org/1999/xlink" x="0px" y="0px"
	 width="1493.925px" height="1016.949px" viewBox="0 0 1493.925 1016.949" enable-background="new 0 0 1493.925 1016.949"
	 xml:space="preserve">
<g opacity="0.3">
	<g>
		<circle opacity="0.6" fill="#FFFFFF" cx="694.077" cy="627.112" r="468.941"/>
		<path opacity="0.3" fill="#5FD9FF" d="M694.077,75.025c-304.908,0-552.086,247.18-552.086,552.087
			c0,304.909,247.178,552.085,552.086,552.085c304.911,0,552.086-247.176,552.086-552.085
			C1246.163,322.205,998.987,75.025,694.077,75.025z M694.077,1112.452c-268.046,0-485.341-217.293-485.341-485.34
			c0-268.045,217.295-485.342,485.341-485.343c268.048,0,485.341,217.298,485.341,485.343
			C1179.418,895.159,962.125,1112.452,694.077,1112.452z"/>
		<path opacity="0.3" fill="#00AEEF" d="M694.077,12.008c-339.711,0-615.103,275.394-615.103,615.104
			c0,339.713,275.392,615.102,615.103,615.102c339.713,0,615.103-275.389,615.103-615.102
			C1309.18,287.401,1033.79,12.008,694.077,12.008z M694.077,1167.851c-298.642,0-540.739-242.096-540.739-540.738
			c0-298.641,242.098-540.74,540.739-540.742c298.644,0,540.74,242.102,540.74,540.742
			C1234.816,925.755,992.721,1167.851,694.077,1167.851z"/>
		<path opacity="0.3" fill="#A1EDFF" d="M694.077,132.924c-272.932,0-494.188,221.257-494.188,494.188
			s221.256,494.187,494.188,494.188c272.934,0,494.188-221.254,494.188-494.188C1188.265,354.181,967.011,132.924,694.077,132.924z
			 M694.077,1092.44c-256.994,0-465.329-208.335-465.329-465.328s208.335-465.33,465.329-465.33
			c256.996,0,465.33,208.336,465.33,465.33C1159.406,884.107,951.072,1092.44,694.077,1092.44z"/>
		<g>
			<g>
				<circle fill="#FFFFFF" cx="542.144" cy="412.198" r="18.576"/>
				<path fill="#FFFFFF" d="M469.265,390.766c0,19.727,15.996,35.723,35.727,35.723c19.729,0,35.722-15.996,35.722-35.723
					c0-19.732-15.993-35.726-35.722-35.726C485.261,355.04,469.265,371.033,469.265,390.766z"/>
				<circle fill="#FFFFFF" cx="524.996" cy="425.059" r="17.148"/>
				<path fill="#FFFFFF" d="M432.113,413.629c0,19.729,15.993,35.726,35.723,35.726c19.733,0,35.726-15.996,35.726-35.726
					c0-19.73-15.993-35.727-35.726-35.727C448.106,377.902,432.113,393.898,432.113,413.629z"/>
				<path fill="#FFFFFF" d="M413.536,416.487c0,11.05,8.957,20.002,20.006,20.002c11.046,0,20.006-8.952,20.006-20.002
					s-8.959-20.009-20.006-20.009C422.493,396.479,413.536,405.438,413.536,416.487z"/>
				<circle fill="#FFFFFF" cx="504.991" cy="422.203" r="27.151"/>
			</g>
			<g>
				<circle fill="#FFFFFF" cx="951.046" cy="491.141" r="7.395"/>
				<path fill="#FFFFFF" d="M922.036,482.609c0,7.852,6.365,14.219,14.219,14.219s14.223-6.367,14.223-14.219
					c0-7.854-6.369-14.226-14.223-14.226S922.036,474.755,922.036,482.609z"/>
				<circle fill="#FFFFFF" cx="944.22" cy="496.259" r="6.826"/>
				<path fill="#FFFFFF" d="M907.246,491.706c0,7.854,6.368,14.224,14.222,14.224s14.219-6.369,14.219-14.224
					c0-7.852-6.365-14.218-14.219-14.218S907.246,483.854,907.246,491.706z"/>
				<path fill="#FFFFFF" d="M899.851,492.848c0,4.397,3.566,7.964,7.965,7.964s7.963-3.566,7.963-7.964
					c0-4.401-3.564-7.964-7.963-7.964S899.851,488.446,899.851,492.848z"/>
				<circle fill="#FFFFFF" cx="936.256" cy="495.122" r="10.808"/>
			</g>
			<g>
				<circle fill="#FFFFFF" cx="421.335" cy="169.085" r="14.969"/>
				<path fill="#FFFFFF" d="M480.062,151.813c0,15.897-12.887,28.783-28.788,28.782c-15.897,0-28.789-12.885-28.789-28.782
					c0-15.901,12.891-28.793,28.789-28.793C467.175,123.021,480.062,135.912,480.062,151.813z"/>
				<circle fill="#FFFFFF" cx="435.153" cy="179.447" r="13.817"/>
				<circle fill="#FFFFFF" cx="481.216" cy="170.236" r="28.788"/>
				<path fill="#FFFFFF" d="M524.971,172.538c0,8.903-7.217,16.125-16.121,16.125s-16.121-7.222-16.121-16.125
					c0-8.899,7.217-16.12,16.121-16.12S524.971,163.639,524.971,172.538z"/>
				<path fill="#FFFFFF" d="M473.153,177.147c0,12.082-9.793,21.875-21.879,21.875c-12.082,0-21.879-9.794-21.879-21.876
					c0-12.085,9.797-21.88,21.879-21.88C463.36,155.268,473.153,165.062,473.153,177.147z"/>
			</g>
		</g>
	</g>
	<g>
		<g>
			<polygon fill="#AFBCA8" points="1162.34,996.311 1252.485,956.704 1252.485,532.804 1162.34,527.031 			"/>
			<rect x="1074.536" y="736.402" fill="#AFBCA8" width="110.154" height="259.908"/>
			<rect x="970.766" y="520.733" fill="#AFBCA8" width="103.771" height="475.577"/>
			<rect x="1001.282" y="429.981" fill="#AFBCA8" width="42.74" height="461.981"/>
			<rect x="1018.539" y="448.818" fill="#FFFFFF" width="8.224" height="71.915"/>
			<rect x="927.661" y="683.075" fill="#AFBCA8" width="54.283" height="313.235"/>
			<polygon fill="#AFBCA8" points="867.574,996.311 928.237,996.311 928.237,530.808 867.574,563.213 			"/>
			<polygon fill="#AFBCA8" points="868.422,523.278 868.422,357.154 813.375,357.154 813.375,549.854 764.826,573.294 
				764.826,996.311 889.351,996.311 889.351,513.174 			"/>
			<rect x="821.547" y="396.714" fill="#FFFFFF" width="14.22" height="34.629"/>
			<rect x="847.939" y="396.714" fill="#FFFFFF" width="14.22" height="34.629"/>
			<rect x="821.547" y="453.39" fill="#FFFFFF" width="14.22" height="34.629"/>
			<rect x="847.939" y="453.39" fill="#FFFFFF" width="14.22" height="34.629"/>
			<rect x="1002.856" y="536.531" opacity="0.31" fill="#FFFFFF" width="14.219" height="34.629"/>
			<rect x="1029.249" y="536.531" opacity="0.31" fill="#FFFFFF" width="14.219" height="34.629"/>
			<rect x="1002.856" y="593.207" opacity="0.31" fill="#FFFFFF" width="14.219" height="34.629"/>
			<rect x="1029.249" y="593.207" opacity="0.31" fill="#FFFFFF" width="14.219" height="34.629"/>
			<polygon fill="#AFBCA8" points="643.497,996.311 776.002,996.311 776.002,598.473 643.497,586.383 			"/>
			<rect x="595.604" y="782.609" fill="#AFBCA8" width="60.664" height="213.701"/>
			<rect x="528.553" y="548.293" fill="#AFBCA8" width="76.63" height="448.018"/>
			<polygon fill="#AFBCA8" points="367.313,996.311 530.15,996.311 530.15,494.868 448.887,447.734 367.313,494.868 			"/>
			<g>
				<g>
					
						<linearGradient id="SVGID_1_" gradientUnits="userSpaceOnUse" x1="1033.6162" y1="748.248" x2="1033.6162" y2="514.3877" gradientTransform="matrix(-1 0 0 1 1521.3594 0)">
						<stop  offset="0.0303" style="stop-color:#CCCCCC"/>
						<stop  offset="0.7271" style="stop-color:#F0F0F0"/>
						<stop  offset="1" style="stop-color:#FFFFFF"/>
					</linearGradient>
					<polygon fill="url(#SVGID_1_)" points="455.123,538.601 520.361,500.61 520.361,509.729 455.123,547.72 					"/>
				</g>
				
					<linearGradient id="SVGID_2_" gradientUnits="userSpaceOnUse" x1="1033.6162" y1="757.6445" x2="1033.6162" y2="523.7842" gradientTransform="matrix(-1 0 0 1 1521.3594 0)">
					<stop  offset="0.0303" style="stop-color:#CCCCCC"/>
					<stop  offset="0.7271" style="stop-color:#E8F0F0"/>
					<stop  offset="1" style="stop-color:#F4FFFF"/>
				</linearGradient>
				<polygon fill="url(#SVGID_2_)" points="455.123,559.682 520.361,521.692 520.361,530.811 455.123,568.801 				"/>
				
					<linearGradient id="SVGID_3_" gradientUnits="userSpaceOnUse" x1="1033.6162" y1="767.0391" x2="1033.6162" y2="533.1812" gradientTransform="matrix(-1 0 0 1 1521.3594 0)">
					<stop  offset="0.0303" style="stop-color:#CCCCCC"/>
					<stop  offset="0.7271" style="stop-color:#E0EFF0"/>
					<stop  offset="1" style="stop-color:#E9FEFF"/>
				</linearGradient>
				<polygon fill="url(#SVGID_3_)" points="455.123,580.764 520.361,542.774 520.361,551.893 455.123,589.883 				"/>
				
					<linearGradient id="SVGID_4_" gradientUnits="userSpaceOnUse" x1="1033.6162" y1="776.4404" x2="1033.6162" y2="542.5776" gradientTransform="matrix(-1 0 0 1 1521.3594 0)">
					<stop  offset="0.0303" style="stop-color:#CCCCCC"/>
					<stop  offset="0.7271" style="stop-color:#D8EFF0"/>
					<stop  offset="1" style="stop-color:#DDFEFF"/>
				</linearGradient>
				<polygon fill="url(#SVGID_4_)" points="455.123,601.846 520.362,563.855 520.362,572.975 455.123,610.965 				"/>
				
					<linearGradient id="SVGID_5_" gradientUnits="userSpaceOnUse" x1="1033.6162" y1="785.8408" x2="1033.6162" y2="551.9732" gradientTransform="matrix(-1 0 0 1 1521.3594 0)">
					<stop  offset="0.0303" style="stop-color:#CCCCCC"/>
					<stop  offset="0.7271" style="stop-color:#D0EEF0"/>
					<stop  offset="1" style="stop-color:#D2FDFF"/>
				</linearGradient>
				<polygon fill="url(#SVGID_5_)" points="455.123,622.928 520.361,584.937 520.361,594.057 455.123,632.047 				"/>
				
					<linearGradient id="SVGID_6_" gradientUnits="userSpaceOnUse" x1="1033.6172" y1="795.2334" x2="1033.6172" y2="561.3706" gradientTransform="matrix(-1 0 0 1 1521.3594 0)">
					<stop  offset="0.0303" style="stop-color:#CCCCCC"/>
					<stop  offset="0.7271" style="stop-color:#C8EEF0"/>
					<stop  offset="1" style="stop-color:#C7FDFF"/>
				</linearGradient>
				<polygon fill="url(#SVGID_6_)" points="455.122,644.009 520.361,606.019 520.361,615.138 455.122,653.128 				"/>
				
					<linearGradient id="SVGID_7_" gradientUnits="userSpaceOnUse" x1="1033.6162" y1="804.6318" x2="1033.6162" y2="570.7666" gradientTransform="matrix(-1 0 0 1 1521.3594 0)">
					<stop  offset="0.0303" style="stop-color:#CCCCCC"/>
					<stop  offset="0.7271" style="stop-color:#C1EEF0"/>
					<stop  offset="1" style="stop-color:#BCFCFF"/>
				</linearGradient>
				<polygon fill="url(#SVGID_7_)" points="455.123,665.091 520.361,627.101 520.361,636.22 455.123,674.21 				"/>
				
					<linearGradient id="SVGID_8_" gradientUnits="userSpaceOnUse" x1="1033.6162" y1="814.0264" x2="1033.6162" y2="580.166" gradientTransform="matrix(-1 0 0 1 1521.3594 0)">
					<stop  offset="0.0303" style="stop-color:#CCCCCC"/>
					<stop  offset="0.7271" style="stop-color:#B9EEF0"/>
					<stop  offset="1" style="stop-color:#B1FCFF"/>
				</linearGradient>
				<polygon fill="url(#SVGID_8_)" points="455.123,686.173 520.361,648.183 520.361,657.302 455.123,695.292 				"/>
				
					<linearGradient id="SVGID_9_" gradientUnits="userSpaceOnUse" x1="1033.6162" y1="823.4229" x2="1033.6162" y2="589.5625" gradientTransform="matrix(-1 0 0 1 1521.3594 0)">
					<stop  offset="0.0303" style="stop-color:#CCCCCC"/>
					<stop  offset="0.7271" style="stop-color:#B1EDF0"/>
					<stop  offset="1" style="stop-color:#A5FBFF"/>
				</linearGradient>
				<polygon fill="url(#SVGID_9_)" points="455.123,707.255 520.361,669.265 520.361,678.384 455.123,716.374 				"/>
				
					<linearGradient id="SVGID_10_" gradientUnits="userSpaceOnUse" x1="1033.6182" y1="832.8193" x2="1033.6182" y2="598.959" gradientTransform="matrix(-1 0 0 1 1521.3594 0)">
					<stop  offset="0.0303" style="stop-color:#CCCCCC"/>
					<stop  offset="0.7271" style="stop-color:#A9EDF0"/>
					<stop  offset="1" style="stop-color:#9AFBFF"/>
				</linearGradient>
				<polygon fill="url(#SVGID_10_)" points="455.122,728.336 520.361,690.346 520.361,699.465 455.122,737.455 				"/>
				
					<linearGradient id="SVGID_11_" gradientUnits="userSpaceOnUse" x1="1033.6162" y1="842.2158" x2="1033.6162" y2="608.3555" gradientTransform="matrix(-1 0 0 1 1521.3594 0)">
					<stop  offset="0.0303" style="stop-color:#CCCCCC"/>
					<stop  offset="0.6203" style="stop-color:#A8E7EA"/>
					<stop  offset="1" style="stop-color:#8FFAFF"/>
				</linearGradient>
				<polygon fill="url(#SVGID_11_)" points="455.123,749.418 520.361,711.428 520.361,720.547 455.123,758.537 				"/>
				
					<linearGradient id="SVGID_12_" gradientUnits="userSpaceOnUse" x1="1033.6162" y1="851.6143" x2="1033.6162" y2="617.749" gradientTransform="matrix(-1 0 0 1 1521.3594 0)">
					<stop  offset="0.0303" style="stop-color:#CCCCCC"/>
					<stop  offset="0.5362" style="stop-color:#A8E3E5"/>
					<stop  offset="1" style="stop-color:#84FAFF"/>
				</linearGradient>
				<polygon fill="url(#SVGID_12_)" points="455.123,770.499 520.361,732.509 520.361,741.628 455.123,779.619 				"/>
				
					<linearGradient id="SVGID_13_" gradientUnits="userSpaceOnUse" x1="1033.6172" y1="861.0088" x2="1033.6172" y2="627.1484" gradientTransform="matrix(-1 0 0 1 1521.3594 0)">
					<stop  offset="0.0303" style="stop-color:#CCCCCC"/>
					<stop  offset="0.471" style="stop-color:#A8DFE2"/>
					<stop  offset="1" style="stop-color:#78F9FF"/>
				</linearGradient>
				<polygon fill="url(#SVGID_13_)" points="455.122,791.581 520.361,753.591 520.361,762.71 455.122,800.7 				"/>
				
					<linearGradient id="SVGID_14_" gradientUnits="userSpaceOnUse" x1="1033.6162" y1="870.4063" x2="1033.6162" y2="636.5459" gradientTransform="matrix(-1 0 0 1 1521.3594 0)">
					<stop  offset="0.0303" style="stop-color:#CCCCCC"/>
					<stop  offset="0.4236" style="stop-color:#A8DDDF"/>
					<stop  offset="1" style="stop-color:#6DF9FF"/>
				</linearGradient>
				<polygon fill="url(#SVGID_14_)" points="455.123,812.663 520.361,774.673 520.361,783.792 455.123,821.782 				"/>
				
					<linearGradient id="SVGID_15_" gradientUnits="userSpaceOnUse" x1="1033.6162" y1="879.8027" x2="1033.6162" y2="645.9424" gradientTransform="matrix(-1 0 0 1 1521.3594 0)">
					<stop  offset="0.0303" style="stop-color:#CCCCCC"/>
					<stop  offset="0.3858" style="stop-color:#A8DBDD"/>
					<stop  offset="1" style="stop-color:#62F8FF"/>
				</linearGradient>
				<polygon fill="url(#SVGID_15_)" points="455.123,833.745 520.361,795.755 520.361,804.874 455.123,842.864 				"/>
				
					<linearGradient id="SVGID_16_" gradientUnits="userSpaceOnUse" x1="1033.6172" y1="889.1992" x2="1033.6172" y2="655.3389" gradientTransform="matrix(-1 0 0 1 1521.3594 0)">
					<stop  offset="0.0303" style="stop-color:#CCCCCC"/>
					<stop  offset="0.3548" style="stop-color:#A8DADC"/>
					<stop  offset="1" style="stop-color:#57F8FF"/>
				</linearGradient>
				<polygon fill="url(#SVGID_16_)" points="455.122,854.826 520.361,816.836 520.361,825.955 455.122,863.945 				"/>
				
					<linearGradient id="SVGID_17_" gradientUnits="userSpaceOnUse" x1="1033.6162" y1="898.5957" x2="1033.6162" y2="664.7354" gradientTransform="matrix(-1 0 0 1 1521.3594 0)">
					<stop  offset="0.0303" style="stop-color:#CCCCCC"/>
					<stop  offset="0.3289" style="stop-color:#A8D8DA"/>
					<stop  offset="0.99" style="stop-color:#4DF7FE"/>
					<stop  offset="1" style="stop-color:#4CF7FF"/>
				</linearGradient>
				<polygon fill="url(#SVGID_17_)" points="455.123,875.908 520.361,837.918 520.361,847.037 455.123,885.027 				"/>
				
					<linearGradient id="SVGID_18_" gradientUnits="userSpaceOnUse" x1="1033.6162" y1="907.9932" x2="1033.6162" y2="674.1279" gradientTransform="matrix(-1 0 0 1 1521.3594 0)">
					<stop  offset="0.0303" style="stop-color:#CCCCCC"/>
					<stop  offset="0.3052" style="stop-color:#A8D7D9"/>
					<stop  offset="0.9133" style="stop-color:#4DF3FA"/>
					<stop  offset="1" style="stop-color:#40F7FF"/>
				</linearGradient>
				<polygon fill="url(#SVGID_18_)" points="455.123,896.99 520.361,858.999 520.361,868.119 455.123,906.109 				"/>
				
					<linearGradient id="SVGID_19_" gradientUnits="userSpaceOnUse" x1="1033.6162" y1="917.3887" x2="1033.6162" y2="683.5283" gradientTransform="matrix(-1 0 0 1 1521.3594 0)">
					<stop  offset="0.0303" style="stop-color:#CCCCCC"/>
					<stop  offset="0.2867" style="stop-color:#A8D6D8"/>
					<stop  offset="0.8535" style="stop-color:#4DEFF7"/>
					<stop  offset="1" style="stop-color:#35F6FF"/>
				</linearGradient>
				<polygon fill="url(#SVGID_19_)" points="455.123,918.071 520.361,880.081 520.361,889.2 455.123,927.19 				"/>
				<g>
					
						<linearGradient id="SVGID_20_" gradientUnits="userSpaceOnUse" x1="1033.6162" y1="926.7861" x2="1033.6162" y2="692.9258" gradientTransform="matrix(-1 0 0 1 1521.3594 0)">
						<stop  offset="0.0303" style="stop-color:#CCCCCC"/>
						<stop  offset="0.2706" style="stop-color:#A8D5D7"/>
						<stop  offset="0.8016" style="stop-color:#4DEDF4"/>
						<stop  offset="1" style="stop-color:#2AF6FF"/>
					</linearGradient>
					<polygon fill="url(#SVGID_20_)" points="455.123,939.153 520.361,901.163 520.361,910.282 455.123,948.272 					"/>
				</g>
			</g>
			<g>
				<g>
					
						<linearGradient id="SVGID_21_" gradientUnits="userSpaceOnUse" x1="1366.6475" y1="748.248" x2="1366.6475" y2="514.3877" gradientTransform="matrix(1.1959 0 0 1 -1218.2632 4.882813e-004)">
						<stop  offset="0.0303" style="stop-color:#CCCCCC"/>
						<stop  offset="0.7271" style="stop-color:#F0F0F0"/>
						<stop  offset="1" style="stop-color:#FFFFFF"/>
					</linearGradient>
					<polygon fill="url(#SVGID_21_)" points="455.121,538.601 377.102,500.61 377.102,509.729 455.121,547.72 					"/>
				</g>
				
					<linearGradient id="SVGID_22_" gradientUnits="userSpaceOnUse" x1="1366.6475" y1="757.6445" x2="1366.6475" y2="523.7842" gradientTransform="matrix(1.1959 0 0 1 -1218.2632 4.882813e-004)">
					<stop  offset="0.0303" style="stop-color:#CCCCCC"/>
					<stop  offset="0.7271" style="stop-color:#E8F0F0"/>
					<stop  offset="1" style="stop-color:#F4FFFF"/>
				</linearGradient>
				<polygon fill="url(#SVGID_22_)" points="455.121,559.682 377.102,521.692 377.102,530.811 455.121,568.801 				"/>
				
					<linearGradient id="SVGID_23_" gradientUnits="userSpaceOnUse" x1="1366.6475" y1="767.0391" x2="1366.6475" y2="533.1812" gradientTransform="matrix(1.1959 0 0 1 -1218.2632 4.882813e-004)">
					<stop  offset="0.0303" style="stop-color:#CCCCCC"/>
					<stop  offset="0.7271" style="stop-color:#E0EFF0"/>
					<stop  offset="1" style="stop-color:#E9FEFF"/>
				</linearGradient>
				<polygon fill="url(#SVGID_23_)" points="455.121,580.764 377.102,542.774 377.102,551.893 455.121,589.883 				"/>
				
					<linearGradient id="SVGID_24_" gradientUnits="userSpaceOnUse" x1="1366.6475" y1="776.4404" x2="1366.6475" y2="542.5776" gradientTransform="matrix(1.1959 0 0 1 -1218.2632 4.882813e-004)">
					<stop  offset="0.0303" style="stop-color:#CCCCCC"/>
					<stop  offset="0.7271" style="stop-color:#D8EFF0"/>
					<stop  offset="1" style="stop-color:#DDFEFF"/>
				</linearGradient>
				<polygon fill="url(#SVGID_24_)" points="455.121,601.846 377.102,563.855 377.102,572.975 455.121,610.965 				"/>
				
					<linearGradient id="SVGID_25_" gradientUnits="userSpaceOnUse" x1="1366.6475" y1="785.8369" x2="1366.6475" y2="551.9741" gradientTransform="matrix(1.1959 0 0 1 -1218.2632 4.882813e-004)">
					<stop  offset="0.0303" style="stop-color:#CCCCCC"/>
					<stop  offset="0.7271" style="stop-color:#D0EEF0"/>
					<stop  offset="1" style="stop-color:#D2FDFF"/>
				</linearGradient>
				<polygon fill="url(#SVGID_25_)" points="455.121,622.928 377.102,584.937 377.102,594.057 455.121,632.047 				"/>
				
					<linearGradient id="SVGID_26_" gradientUnits="userSpaceOnUse" x1="1366.6475" y1="795.2295" x2="1366.6475" y2="561.3716" gradientTransform="matrix(1.1959 0 0 1 -1218.2632 4.882813e-004)">
					<stop  offset="0.0303" style="stop-color:#CCCCCC"/>
					<stop  offset="0.7271" style="stop-color:#C8EEF0"/>
					<stop  offset="1" style="stop-color:#C7FDFF"/>
				</linearGradient>
				<polygon fill="url(#SVGID_26_)" points="455.121,644.009 377.102,606.019 377.102,615.138 455.121,653.128 				"/>
				
					<linearGradient id="SVGID_27_" gradientUnits="userSpaceOnUse" x1="1366.6475" y1="804.6279" x2="1366.6475" y2="570.7676" gradientTransform="matrix(1.1959 0 0 1 -1218.2632 4.882813e-004)">
					<stop  offset="0.0303" style="stop-color:#CCCCCC"/>
					<stop  offset="0.7271" style="stop-color:#C1EEF0"/>
					<stop  offset="1" style="stop-color:#BCFCFF"/>
				</linearGradient>
				<polygon fill="url(#SVGID_27_)" points="455.121,665.091 377.102,627.101 377.102,636.22 455.121,674.21 				"/>
				
					<linearGradient id="SVGID_28_" gradientUnits="userSpaceOnUse" x1="1366.6475" y1="814.0254" x2="1366.6475" y2="580.165" gradientTransform="matrix(1.1959 0 0 1 -1218.2632 4.882813e-004)">
					<stop  offset="0.0303" style="stop-color:#CCCCCC"/>
					<stop  offset="0.7271" style="stop-color:#B9EEF0"/>
					<stop  offset="1" style="stop-color:#B1FCFF"/>
				</linearGradient>
				<polygon fill="url(#SVGID_28_)" points="455.122,686.173 377.102,648.183 377.102,657.302 455.122,695.292 				"/>
				
					<linearGradient id="SVGID_29_" gradientUnits="userSpaceOnUse" x1="1366.6475" y1="823.4219" x2="1366.6475" y2="589.5615" gradientTransform="matrix(1.1959 0 0 1 -1218.2632 4.882813e-004)">
					<stop  offset="0.0303" style="stop-color:#CCCCCC"/>
					<stop  offset="0.7271" style="stop-color:#B1EDF0"/>
					<stop  offset="1" style="stop-color:#A5FBFF"/>
				</linearGradient>
				<polygon fill="url(#SVGID_29_)" points="455.121,707.255 377.102,669.265 377.102,678.384 455.121,716.374 				"/>
				
					<linearGradient id="SVGID_30_" gradientUnits="userSpaceOnUse" x1="1366.6475" y1="832.8184" x2="1366.6475" y2="598.958" gradientTransform="matrix(1.1959 0 0 1 -1218.2632 4.882813e-004)">
					<stop  offset="0.0303" style="stop-color:#CCCCCC"/>
					<stop  offset="0.7271" style="stop-color:#A9EDF0"/>
					<stop  offset="1" style="stop-color:#9AFBFF"/>
				</linearGradient>
				<polygon fill="url(#SVGID_30_)" points="455.121,728.336 377.102,690.346 377.102,699.465 455.121,737.455 				"/>
				
					<linearGradient id="SVGID_31_" gradientUnits="userSpaceOnUse" x1="1366.6475" y1="842.2148" x2="1366.6475" y2="608.3545" gradientTransform="matrix(1.1959 0 0 1 -1218.2632 4.882813e-004)">
					<stop  offset="0.0303" style="stop-color:#CCCCCC"/>
					<stop  offset="0.6203" style="stop-color:#A8E7EA"/>
					<stop  offset="1" style="stop-color:#8FFAFF"/>
				</linearGradient>
				<polygon fill="url(#SVGID_31_)" points="455.121,749.418 377.102,711.428 377.102,720.547 455.121,758.537 				"/>
				
					<linearGradient id="SVGID_32_" gradientUnits="userSpaceOnUse" x1="1366.6475" y1="851.6133" x2="1366.6475" y2="617.748" gradientTransform="matrix(1.1959 0 0 1 -1218.2632 4.882813e-004)">
					<stop  offset="0.0303" style="stop-color:#CCCCCC"/>
					<stop  offset="0.5362" style="stop-color:#A8E3E5"/>
					<stop  offset="1" style="stop-color:#84FAFF"/>
				</linearGradient>
				<polygon fill="url(#SVGID_32_)" points="455.121,770.499 377.102,732.509 377.102,741.628 455.121,779.619 				"/>
				
					<linearGradient id="SVGID_33_" gradientUnits="userSpaceOnUse" x1="1366.6475" y1="861.0078" x2="1366.6475" y2="627.1475" gradientTransform="matrix(1.1959 0 0 1 -1218.2632 4.882813e-004)">
					<stop  offset="0.0303" style="stop-color:#CCCCCC"/>
					<stop  offset="0.471" style="stop-color:#A8DFE2"/>
					<stop  offset="1" style="stop-color:#78F9FF"/>
				</linearGradient>
				<polygon fill="url(#SVGID_33_)" points="455.121,791.581 377.102,753.591 377.102,762.71 455.121,800.7 				"/>
				
					<linearGradient id="SVGID_34_" gradientUnits="userSpaceOnUse" x1="1366.6475" y1="870.4053" x2="1366.6475" y2="636.5449" gradientTransform="matrix(1.1959 0 0 1 -1218.2632 4.882813e-004)">
					<stop  offset="0.0303" style="stop-color:#CCCCCC"/>
					<stop  offset="0.4236" style="stop-color:#A8DDDF"/>
					<stop  offset="1" style="stop-color:#6DF9FF"/>
				</linearGradient>
				<polygon fill="url(#SVGID_34_)" points="455.121,812.663 377.102,774.673 377.102,783.792 455.121,821.782 				"/>
				
					<linearGradient id="SVGID_35_" gradientUnits="userSpaceOnUse" x1="1366.6475" y1="879.8018" x2="1366.6475" y2="645.9414" gradientTransform="matrix(1.1959 0 0 1 -1218.2632 4.882813e-004)">
					<stop  offset="0.0303" style="stop-color:#CCCCCC"/>
					<stop  offset="0.3858" style="stop-color:#A8DBDD"/>
					<stop  offset="1" style="stop-color:#62F8FF"/>
				</linearGradient>
				<polygon fill="url(#SVGID_35_)" points="455.121,833.745 377.102,795.755 377.102,804.874 455.121,842.864 				"/>
				
					<linearGradient id="SVGID_36_" gradientUnits="userSpaceOnUse" x1="1366.6475" y1="889.1982" x2="1366.6475" y2="655.3379" gradientTransform="matrix(1.1959 0 0 1 -1218.2632 4.882813e-004)">
					<stop  offset="0.0303" style="stop-color:#CCCCCC"/>
					<stop  offset="0.3548" style="stop-color:#A8DADC"/>
					<stop  offset="1" style="stop-color:#57F8FF"/>
				</linearGradient>
				<polygon fill="url(#SVGID_36_)" points="455.121,854.826 377.102,816.836 377.102,825.955 455.121,863.945 				"/>
				
					<linearGradient id="SVGID_37_" gradientUnits="userSpaceOnUse" x1="1366.6475" y1="898.5947" x2="1366.6475" y2="664.7344" gradientTransform="matrix(1.1959 0 0 1 -1218.2632 4.882813e-004)">
					<stop  offset="0.0303" style="stop-color:#CCCCCC"/>
					<stop  offset="0.3289" style="stop-color:#A8D8DA"/>
					<stop  offset="0.99" style="stop-color:#4DF7FE"/>
					<stop  offset="1" style="stop-color:#4CF7FF"/>
				</linearGradient>
				<polygon fill="url(#SVGID_37_)" points="455.121,875.908 377.102,837.918 377.102,847.037 455.121,885.027 				"/>
				
					<linearGradient id="SVGID_38_" gradientUnits="userSpaceOnUse" x1="1366.6475" y1="907.9922" x2="1366.6475" y2="674.127" gradientTransform="matrix(1.1959 0 0 1 -1218.2632 4.882813e-004)">
					<stop  offset="0.0303" style="stop-color:#CCCCCC"/>
					<stop  offset="0.3052" style="stop-color:#A8D7D9"/>
					<stop  offset="0.9133" style="stop-color:#4DF3FA"/>
					<stop  offset="1" style="stop-color:#40F7FF"/>
				</linearGradient>
				<polygon fill="url(#SVGID_38_)" points="455.121,896.99 377.102,858.999 377.102,868.119 455.121,906.109 				"/>
				
					<linearGradient id="SVGID_39_" gradientUnits="userSpaceOnUse" x1="1366.6475" y1="917.3877" x2="1366.6475" y2="683.5273" gradientTransform="matrix(1.1959 0 0 1 -1218.2632 4.882813e-004)">
					<stop  offset="0.0303" style="stop-color:#CCCCCC"/>
					<stop  offset="0.2867" style="stop-color:#A8D6D8"/>
					<stop  offset="0.8535" style="stop-color:#4DEFF7"/>
					<stop  offset="1" style="stop-color:#35F6FF"/>
				</linearGradient>
				<polygon fill="url(#SVGID_39_)" points="455.121,918.071 377.102,880.081 377.102,889.2 455.121,927.19 				"/>
				<g>
					
						<linearGradient id="SVGID_40_" gradientUnits="userSpaceOnUse" x1="1366.6475" y1="926.7852" x2="1366.6475" y2="692.9248" gradientTransform="matrix(1.1959 0 0 1 -1218.2632 4.882813e-004)">
						<stop  offset="0.0303" style="stop-color:#CCCCCC"/>
						<stop  offset="0.2706" style="stop-color:#A8D5D7"/>
						<stop  offset="0.8016" style="stop-color:#4DEDF4"/>
						<stop  offset="1" style="stop-color:#2AF6FF"/>
					</linearGradient>
					<polygon fill="url(#SVGID_40_)" points="455.121,939.153 377.102,901.163 377.102,910.282 455.121,948.272 					"/>
				</g>
			</g>
			<rect x="214.056" y="732.07" fill="#AFBCA8" width="169.222" height="264.24"/>
			<rect x="121.461" y="486.785" fill="#AFBCA8" width="108.558" height="509.525"/>
			<rect x="41.64" y="621.071" fill="#AFBCA8" width="90.998" height="375.239"/>
			<rect x="1234.223" y="658.847" fill="#AFBCA8" width="119.405" height="337.464"/>
			<rect x="1342.646" y="700.239" fill="#AFBCA8" width="106.169" height="296.071"/>
			<g>
				<rect x="540.422" y="574.479" fill="#FFFFFF" width="18.158" height="44.218"/>
				<rect x="573.817" y="574.479" fill="#FFFFFF" width="18.158" height="44.218"/>
				<rect x="540.422" y="643.892" fill="#FFFFFF" width="18.158" height="44.218"/>
				<rect x="573.817" y="643.892" fill="#FFFFFF" width="18.158" height="44.218"/>
			</g>
		</g>
		<g>
			<polygon fill="#739E83" points="374.924,1016.125 263.174,1016.125 263.174,581.389 374.924,536.011 			"/>
			<rect x="352.574" y="871.404" fill="#739E83" width="110.155" height="144.721"/>
			<rect x="462.729" y="742.893" fill="#739E83" width="103.769" height="273.232"/>
			<rect x="493.242" y="512.524" fill="#739E83" width="42.741" height="430.313"/>
			<rect x="510.501" y="378.784" fill="#739E83" width="8.223" height="146.576"/>
			<rect x="510.5" y="525.368" fill="#FFFFFF" width="8.223" height="217.524"/>
			<rect x="555.322" y="848.301" fill="#739E83" width="54.28" height="167.824"/>
			<rect x="596.829" y="804.981" fill="#739E83" width="60.664" height="211.144"/>
			<polygon fill="#739E83" points="772.437,1016.125 647.915,1016.125 647.915,531.982 772.437,595.45 			"/>
			<rect x="761.262" y="753" fill="#739E83" width="132.505" height="263.125"/>
			<rect x="880.997" y="917.609" fill="#739E83" width="60.662" height="98.516"/>
			<rect x="932.08" y="809.313" fill="#739E83" width="76.63" height="206.813"/>
			<polygon fill="#739E83" points="1169.952,1016.125 1007.114,1016.125 1007.114,732.322 1088.377,685.188 1169.952,732.322 			"/>
			<rect x="1285.641" y="654.194" fill="#739E83" width="83.356" height="361.931"/>
			<rect x="1357.819" y="828.087" fill="#739E83" width="90.996" height="188.038"/>
			<rect x="136.827" y="833.458" fill="#739E83" width="144.61" height="182.667"/>
			<rect x="41.64" y="874.852" fill="#739E83" width="106.17" height="141.273"/>
			<rect x="673.692" y="649.27" fill="#C3CEBE" width="18.158" height="44.218"/>
			<rect x="719.089" y="649.27" fill="#C3CEBE" width="18.158" height="44.218"/>
			<rect x="673.692" y="733.286" fill="#C3CEBE" width="18.158" height="44.22"/>
			<rect x="719.089" y="733.286" fill="#C3CEBE" width="18.158" height="44.22"/>
			<rect x="673.692" y="817.304" fill="#C3CEBE" width="18.158" height="44.219"/>
			<rect x="719.089" y="817.304" fill="#C3CEBE" width="18.158" height="44.219"/>
			<rect x="673.692" y="901.319" fill="#C3CEBE" width="18.158" height="44.221"/>
			<rect x="719.089" y="901.319" fill="#C3CEBE" width="18.158" height="44.221"/>
			<rect x="795.218" y="785.087" fill="#C3CEBE" width="18.157" height="44.218"/>
			<rect x="840.614" y="785.087" fill="#C3CEBE" width="18.162" height="44.218"/>
			<rect x="795.218" y="869.105" fill="#C3CEBE" width="18.157" height="44.218"/>
			<rect x="840.614" y="869.105" fill="#C3CEBE" width="18.162" height="44.218"/>
			<rect x="950.267" y="826.779" fill="#C3CEBE" width="18.159" height="44.219"/>
			<rect x="995.664" y="826.779" fill="#C3CEBE" width="18.158" height="44.219"/>
			<rect x="950.267" y="910.795" fill="#C3CEBE" width="18.159" height="44.221"/>
			<rect x="995.664" y="910.795" fill="#C3CEBE" width="18.158" height="44.221"/>
			<rect x="1063.413" y="778.771" fill="#C3CEBE" width="18.158" height="44.218"/>
			<rect x="1108.81" y="778.771" fill="#C3CEBE" width="18.158" height="44.218"/>
			<rect x="1063.413" y="862.787" fill="#C3CEBE" width="18.158" height="44.221"/>
			<rect x="1108.81" y="862.787" fill="#C3CEBE" width="18.158" height="44.221"/>
			<rect x="1301.998" y="686.101" fill="#C3CEBE" width="18.157" height="83.824"/>
			<rect x="1332.993" y="686.101" fill="#C3CEBE" width="18.157" height="83.824"/>
			<rect x="1301.998" y="809.726" fill="#C3CEBE" width="18.157" height="44.218"/>
			<rect x="1332.993" y="809.726" fill="#C3CEBE" width="18.157" height="44.218"/>
			<rect x="479.832" y="762.344" fill="#C3CEBE" width="18.158" height="33.581"/>
			<rect x="531.911" y="762.344" fill="#C3CEBE" width="18.16" height="33.581"/>
			<rect x="479.832" y="827.738" fill="#C3CEBE" width="18.158" height="29.598"/>
			<rect x="531.911" y="827.738" fill="#C3CEBE" width="18.16" height="29.598"/>
			<rect x="289.559" y="724.441" fill="#C3CEBE" width="18.157" height="44.221"/>
			<rect x="334.956" y="724.441" fill="#C3CEBE" width="18.158" height="44.221"/>
			<rect x="289.559" y="808.458" fill="#C3CEBE" width="18.157" height="44.22"/>
			<rect x="334.956" y="808.458" fill="#C3CEBE" width="18.158" height="44.22"/>
			<polygon fill="#739E83" points="1274.032,867.073 1274.032,788.58 1258.01,794.691 1258.01,785.347 1232.454,785.347 
				1232.454,804.438 1182.224,831.834 1182.224,867.073 1153.985,867.073 1153.985,1016.125 1301.604,1016.125 1301.604,867.073 			
				"/>
		</g>
		<g>
			
				<linearGradient id="SVGID_41_" gradientUnits="userSpaceOnUse" x1="3745.7998" y1="498.2524" x2="3661.8254" y2="688.1071" gradientTransform="matrix(-1 0 0 1 4602.6504 0)">
				<stop  offset="0" style="stop-color:#FDD65B"/>
				<stop  offset="0.0115" style="stop-color:#F7D159"/>
				<stop  offset="0.1287" style="stop-color:#BEA144"/>
				<stop  offset="0.2492" style="stop-color:#8B7632"/>
				<stop  offset="0.3704" style="stop-color:#605223"/>
				<stop  offset="0.4923" style="stop-color:#3E3416"/>
				<stop  offset="0.6153" style="stop-color:#231D0C"/>
				<stop  offset="0.7398" style="stop-color:#0F0D05"/>
				<stop  offset="0.8667" style="stop-color:#040301"/>
				<stop  offset="1" style="stop-color:#000000"/>
			</linearGradient>
			<polygon fill="url(#SVGID_41_)" points="902.908,701.338 902.908,553.619 920.862,544.02 920.862,695.547 			"/>
			
				<linearGradient id="SVGID_42_" gradientUnits="userSpaceOnUse" x1="3785.9189" y1="512.064" x2="3703.0742" y2="699.3649" gradientTransform="matrix(-1 0 0 1 4602.6504 0)">
				<stop  offset="0" style="stop-color:#FDD65B"/>
				<stop  offset="0.0115" style="stop-color:#F7D159"/>
				<stop  offset="0.1287" style="stop-color:#BEA144"/>
				<stop  offset="0.2492" style="stop-color:#8B7632"/>
				<stop  offset="0.3704" style="stop-color:#605223"/>
				<stop  offset="0.4923" style="stop-color:#3E3416"/>
				<stop  offset="0.6153" style="stop-color:#231D0C"/>
				<stop  offset="0.7398" style="stop-color:#0F0D05"/>
				<stop  offset="0.8667" style="stop-color:#040301"/>
				<stop  offset="1" style="stop-color:#000000"/>
			</linearGradient>
			<polygon fill="url(#SVGID_42_)" points="864.191,575.093 882.145,565.501 882.145,708.034 864.191,713.821 			"/>
			
				<linearGradient id="SVGID_43_" gradientUnits="userSpaceOnUse" x1="3825.875" y1="525.8389" x2="3744.1509" y2="710.6061" gradientTransform="matrix(-1 0 0 1 4602.6504 0)">
				<stop  offset="0" style="stop-color:#FDD65B"/>
				<stop  offset="0.0115" style="stop-color:#F7D159"/>
				<stop  offset="0.1287" style="stop-color:#BEA144"/>
				<stop  offset="0.2492" style="stop-color:#8B7632"/>
				<stop  offset="0.3704" style="stop-color:#605223"/>
				<stop  offset="0.4923" style="stop-color:#3E3416"/>
				<stop  offset="0.6153" style="stop-color:#231D0C"/>
				<stop  offset="0.7398" style="stop-color:#0F0D05"/>
				<stop  offset="0.8667" style="stop-color:#040301"/>
				<stop  offset="1" style="stop-color:#000000"/>
			</linearGradient>
			<polygon fill="url(#SVGID_43_)" points="825.47,595.736 843.423,586.141 843.423,720.521 825.47,726.309 			"/>
		</g>
	</g>
	<g>
		<g>
			<g>
				<path fill="#FFFFFF" d="M364.947,480.261c-0.367,0-0.723-0.178-0.919-0.496c-0.292-0.475-0.12-1.083,0.387-1.358l87.676-47.494
					c0.328-0.18,0.733-0.18,1.063,0l87.288,47.496c0.507,0.275,0.678,0.882,0.385,1.357c-0.296,0.477-0.948,0.633-1.449,0.36
					l-86.757-47.208l-87.144,47.211C365.309,480.218,365.127,480.261,364.947,480.261z"/>
			</g>
			<g>
				<g>
					<path fill="#FFFFFF" d="M364.947,1086.128c-0.366,0-0.721-0.174-0.918-0.492c-0.293-0.475-0.121-1.084,0.385-1.359
						l87.288-47.498c0.51-0.275,1.157-0.115,1.449,0.361c0.294,0.475,0.121,1.084-0.385,1.359l-87.288,47.497
						C365.311,1086.087,365.127,1086.128,364.947,1086.128z"/>
				</g>
				<g>
					<path fill="#FFFFFF" d="M539.909,1086.128c-0.18,0-0.364-0.041-0.53-0.135l-87.675-47.494
						c-0.507-0.275-0.681-0.882-0.388-1.359c0.293-0.473,0.942-0.641,1.448-0.361l87.676,47.495c0.507,0.276,0.68,0.882,0.387,1.358
						C540.63,1085.95,540.274,1086.128,539.909,1086.128z"/>
				</g>
			</g>
			<g>
				<g>
					<path fill="#FFFFFF" d="M452.621,527.758c-0.183,0-0.366-0.045-0.53-0.134l-87.676-47.495c-0.507-0.274-0.68-0.885-0.387-1.357
						c0.293-0.479,0.939-0.639,1.448-0.365l87.144,47.211l86.757-47.209c0.501-0.273,1.153-0.116,1.449,0.361
						c0.293,0.475,0.122,1.081-0.385,1.356l-87.288,47.498C452.989,527.713,452.806,527.758,452.621,527.758z"/>
				</g>
				<g>
					<g>
						<path fill="#FFFFFF" d="M452.621,1133.871c-0.182,0-0.365-0.046-0.528-0.132c-0.328-0.178-0.531-0.508-0.531-0.861V526.763
							c0-0.354,0.201-0.681,0.528-0.858l87.288-47.496c0.325-0.177,0.731-0.182,1.06-0.002c0.329,0.179,0.532,0.506,0.532,0.862
							v606.11c0,0.354-0.201,0.68-0.527,0.858l-87.288,47.497C452.989,1133.825,452.806,1133.871,452.621,1133.871z
							 M453.681,527.336v603.815l85.169-46.346V480.992L453.681,527.336z"/>
					</g>
				</g>
				<g>
					<g>
						<path fill="#FFFFFF" d="M452.621,1133.871c-0.183,0-0.366-0.046-0.53-0.137l-87.676-47.494
							c-0.328-0.179-0.529-0.505-0.529-0.861v-606.11c0-0.356,0.202-0.684,0.529-0.862c0.33-0.175,0.734-0.175,1.061,0
							l87.675,47.498c0.329,0.176,0.53,0.504,0.53,0.858v606.115c0,0.354-0.202,0.684-0.53,0.856
							C452.987,1133.825,452.804,1133.871,452.621,1133.871z M366.005,1084.81l85.557,46.345V527.336l-85.557-46.345V1084.81z"/>
					</g>
				</g>
			</g>
		</g>
	</g>
</g>
</svg>
